# xmcd CD database file
#
# Track frame offsets:
#	150
#	17776
#	39410
#	58483
#	80146
#	101812
#	122373
#	135017
#	155437
#	177628
#	196559
#
# Disc length: 2814 seconds
#
# Revision: 0
# Processed by: cddbd v1.5.2PL0 Copyright (c) Steve Scherf et al.
# Submitted via: CDex 1.51
#
DISCID=8c0afc0b
DTITLE=Deb Ryder - Let It Rain
DYEAR=2015
DGENRE=Blues
TTITLE0=That's Just How It Is
TTITLE1=Can't Go Back Again
TTITLE2=You Won't Be True
TTITLE3=Guilty As Sin
TTITLE4=Cry Another Tear
TTITLE5=Hold Your Lamp High
TTITLE6=Money Monsoon
TTITLE7=Kiss And Dream
TTITLE8=Let It Rain
TTITLE9=Ma Misere
TTITLE10=Round And Around
EXTD=YEAR: 2015
EXTT0=
EXTT1=
EXTT2=
EXTT3=
EXTT4=
EXTT5=
EXTT6=
EXTT7=
EXTT8=
EXTT9=
EXTT10=
PLAYORDER=
